<svg xmlns="http://www.w3.org/2000/svg" version="1.1" xmlns:xlink="http://www.w3.org/1999/xlink" xmlns:svgjs="http://svgjs.dev/svgjs" width="1500" height="1500" viewBox="0 0 1500 1500"><rect width="1500" height="1500" fill="#000000"></rect><g transform="matrix(0.6666666666666666,0,0,0.6666666666666666,249.39393939393938,435.99032258064517)"><svg viewBox="0 0 396 248" data-background-color="#ffffff" preserveAspectRatio="xMidYMid meet" height="939" width="1500" xmlns="http://www.w3.org/2000/svg" xmlns:xlink="http://www.w3.org/1999/xlink"><g id="tight-bounds" transform="matrix(1,0,0,1,0.2400000000000091,0.4000000000000057)"><svg viewBox="0 0 395.52 247.2" height="247.2" width="395.52"><g><svg></svg></g><g><svg viewBox="0 0 395.52 247.2" height="247.2" width="395.52"><g transform="matrix(1,0,0,1,75.54432,78.80891308900524)"><svg viewBox="0 0 244.43135999999998 89.58217382198951" height="89.58217382198951" width="244.43135999999998"><g><svg viewBox="0 0 244.43135999999998 89.58217382198951" height="89.58217382198951" width="244.43135999999998"><g><svg viewBox="0 0 244.43135999999998 89.58217382198951" height="89.58217382198951" width="244.43135999999998"><g id="textblocktransform"><svg viewBox="0 0 244.43135999999998 89.58217382198951" height="89.58217382198951" width="244.43135999999998" id="textblock"><g><svg viewBox="0 0 244.43135999999998 89.58217382198951" height="89.58217382198951" width="244.43135999999998"><g transform="matrix(1,0,0,1,0,0)"><svg width="244.43135999999998" viewBox="1.7999999999999998 -28 76.39 28" height="89.58217382198951" data-palette-color="#000000"><g class="wordmark-text-0" data-fill-palette-color="primary" id="text-0"><path d="M18-24Q18.2-23.2 18.2-22L18.2-22Q18.2-20.85 18-20L18-20Q18.2-19.2 18.2-18L18.2-18Q18.2-16.85 18-16L18-16Q18.2-15.2 18.2-14L18.2-14Q18.2-12.85 18-12L18-12Q18.2-11.2 18.2-10L18.2-10Q18.2-8.85 18-8L18-8Q18.2-7.2 18.2-6L18.2-6Q18.2-4.85 18-4L18-4Q18.2-3.2 18.2-2L18.2-2Q18.2-0.85 18 0L18 0 14 0Q13.8-0.85 13.8-2L13.8-2Q13.8-3.2 14-4L14-4 11.5-4Q11.3-4.85 11.3-6L11.3-6Q11.3-7.2 11.5-8L11.5-8 10-8Q9.8-8.85 9.8-10L9.8-10Q9.8-11.2 10-12L10-12 8-12Q7.8-12.85 7.8-14L7.8-14Q7.8-15.2 8-16L8-16 6-16Q6.2-15.2 6.2-14L6.2-14Q6.2-12.85 6-12L6-12Q6.2-11.2 6.2-10L6.2-10Q6.2-8.85 6-8L6-8Q6.2-7.2 6.2-6L6.2-6Q6.2-4.85 6-4L6-4Q6.2-3.2 6.2-2L6.2-2Q6.2-0.85 6 0L6 0 2 0Q1.8-0.85 1.8-2L1.8-2Q1.8-3.2 2-4L2-4Q1.8-4.85 1.8-6L1.8-6Q1.8-7.2 2-8L2-8Q1.8-8.85 1.8-10L1.8-10Q1.8-11.2 2-12L2-12Q1.8-12.85 1.8-14L1.8-14Q1.8-15.2 2-16L2-16Q1.8-16.85 1.8-18L1.8-18Q1.8-19.2 2-20L2-20Q1.8-20.85 1.8-22L1.8-22Q1.8-23.2 2-24L2-24Q1.8-24.85 1.8-26L1.8-26Q1.8-27.2 2-28L2-28 7-28Q7.2-27.2 7.2-26L7.2-26Q7.2-24.85 7-24L7-24 8.5-24Q8.7-23.2 8.7-22L8.7-22Q8.7-20.85 8.5-20L8.5-20 10-20Q10.2-19.2 10.2-18L10.2-18Q10.2-16.85 10-16L10-16 12-16Q12.2-15.2 12.2-14L12.2-14Q12.2-12.85 12-12L12-12 14-12Q13.8-12.85 13.8-14L13.8-14Q13.8-15.2 14-16L14-16Q13.8-16.85 13.8-18L13.8-18Q13.8-19.2 14-20L14-20Q13.8-20.85 13.8-22L13.8-22Q13.8-23.2 14-24L14-24Q13.8-24.85 13.8-26L13.8-26Q13.8-27.2 14-28L14-28 18-28Q18.2-27.2 18.2-26L18.2-26Q18.2-24.85 18-24L18-24ZM36-16Q36.2-15.2 36.2-14L36.2-14Q36.2-12.85 36-12L36-12 28-12Q28.2-11.2 28.2-10L28.2-10Q28.2-8.85 28-8L28-8Q28.2-7.2 28.2-6L28.2-6Q28.2-4.85 28-4L28-4Q28.2-3.2 28.2-2L28.2-2Q28.2-0.85 28 0L28 0 24 0Q23.8-0.85 23.8-2L23.8-2Q23.8-3.2 24-4L24-4Q23.8-4.85 23.8-6L23.8-6Q23.8-7.2 24-8L24-8Q23.8-8.85 23.8-10L23.8-10Q23.8-11.2 24-12L24-12Q23.8-12.85 23.8-14L23.8-14Q23.8-15.2 24-16L24-16Q23.8-16.85 23.8-18L23.8-18Q23.8-19.2 24-20L24-20Q23.8-20.85 23.8-22L23.8-22Q23.8-23.2 24-24L24-24Q23.8-24.85 23.8-26L23.8-26Q23.8-27.2 24-28L24-28 36-28Q36.2-27.2 36.2-26L36.2-26Q36.2-24.85 36-24L36-24 28-24Q28.2-23.2 28.2-22L28.2-22Q28.2-20.85 28-20L28-20Q28.2-19.2 28.2-18L28.2-18Q28.2-16.85 28-16L28-16 36-16ZM56.5-4L58-4Q58.2-3.2 58.2-2L58.2-2Q58.2-0.85 58 0L58 0 54 0Q53.8-0.85 53.8-2L53.8-2Q53.8-3.2 54-4L54-4 52.5-4Q52.3-4.85 52.3-6L52.3-6Q52.3-7.2 52.5-8L52.5-8 51.5-8Q51.3-8.85 51.3-10L51.3-10Q51.3-11.2 51.5-12L51.5-12 48.5-12Q48.7-11.2 48.7-10L48.7-10Q48.7-8.85 48.5-8L48.5-8 47.5-8Q47.7-7.2 47.7-6L47.7-6Q47.7-4.85 47.5-4L47.5-4 46-4Q46.2-3.2 46.2-2L46.2-2Q46.2-0.85 46 0L46 0 42 0Q41.8-0.85 41.8-2L41.8-2Q41.8-3.2 42-4L42-4 43.5-4Q43.3-4.85 43.3-6L43.3-6Q43.3-7.2 43.5-8L43.5-8 45.5-8Q45.3-8.85 45.3-10L45.3-10Q45.3-11.2 45.5-12L45.5-12 47-12Q46.8-12.85 46.8-14L46.8-14Q46.8-15.2 47-16L47-16 45.5-16Q45.3-16.85 45.3-18L45.3-18Q45.3-19.2 45.5-20L45.5-20 43.5-20Q43.3-20.85 43.3-22L43.3-22Q43.3-23.2 43.5-24L43.5-24 42-24Q41.8-24.85 41.8-26L41.8-26Q41.8-27.2 42-28L42-28 46-28Q46.2-27.2 46.2-26L46.2-26Q46.2-24.85 46-24L46-24 47.5-24Q47.7-23.2 47.7-22L47.7-22Q47.7-20.85 47.5-20L47.5-20 48.5-20Q48.7-19.2 48.7-18L48.7-18Q48.7-16.85 48.5-16L48.5-16 51.5-16Q51.3-16.85 51.3-18L51.3-18Q51.3-19.2 51.5-20L51.5-20 52.5-20Q52.3-20.85 52.3-22L52.3-22Q52.3-23.2 52.5-24L52.5-24 54-24Q53.8-24.85 53.8-26L53.8-26Q53.8-27.2 54-28L54-28 58-28Q58.2-27.2 58.2-26L58.2-26Q58.2-24.85 58-24L58-24 56.5-24Q56.7-23.2 56.7-22L56.7-22Q56.7-20.85 56.5-20L56.5-20 54.5-20Q54.7-19.2 54.7-18L54.7-18Q54.7-16.85 54.5-16L54.5-16 53-16Q53.2-15.2 53.2-14L53.2-14Q53.2-12.85 53-12L53-12 54.5-12Q54.7-11.2 54.7-10L54.7-10Q54.7-8.85 54.5-8L54.5-8 56.5-8Q56.7-7.2 56.7-6L56.7-6Q56.7-4.85 56.5-4L56.5-4ZM78.19-22Q78.19-20.85 77.99-20L77.99-20Q78.19-19.2 78.19-18L78.19-18Q78.19-16.85 77.99-16L77.99-16 75.99-16Q76.19-15.2 76.19-14L76.19-14Q76.19-12.85 75.99-12L75.99-12 65.99-12Q66.19-11.2 66.19-10L66.19-10Q66.19-8.85 65.99-8L65.99-8Q66.19-7.2 66.19-6L66.19-6Q66.19-4.85 65.99-4L65.99-4Q66.19-3.2 66.19-2L66.19-2Q66.19-0.85 65.99 0L65.99 0 61.99 0Q61.79-0.85 61.79-2L61.79-2Q61.79-3.2 61.99-4L61.99-4Q61.79-4.85 61.79-6L61.79-6Q61.79-7.2 61.99-8L61.99-8Q61.79-8.85 61.79-10L61.79-10Q61.79-11.2 61.99-12L61.99-12Q61.79-12.85 61.79-14L61.79-14Q61.79-15.2 61.99-16L61.99-16Q61.79-16.85 61.79-18L61.79-18Q61.79-19.2 61.99-20L61.99-20Q61.79-20.85 61.79-22L61.79-22Q61.79-23.2 61.99-24L61.99-24Q61.79-24.85 61.79-26L61.79-26Q61.79-27.2 61.99-28L61.99-28 75.99-28Q76.19-27.2 76.19-26L76.19-26Q76.19-24.85 75.99-24L75.99-24 77.99-24Q78.19-23.2 78.19-22L78.19-22ZM73.99-16Q73.79-16.85 73.79-18L73.79-18Q73.79-19.2 73.99-20L73.99-20Q73.79-20.85 73.79-22L73.79-22Q73.79-23.2 73.99-24L73.99-24 65.99-24Q66.19-23.2 66.19-22L66.19-22Q66.19-20.85 65.99-20L65.99-20Q66.19-19.2 66.19-18L66.19-18Q66.19-16.85 65.99-16L65.99-16 73.99-16Z" fill="#ffffff" data-fill-palette-color="primary"></path></g></svg></g></svg></g></svg></g></svg></g></svg></g></svg></g><path d="M219.372 72.809L219.372 19.422 11.016 19.422 11.016 227.778 219.372 227.778 219.372 174.391 211.293 174.391 211.293 219.7 19.094 219.7 19.094 27.5 211.293 27.5 211.293 72.809Z" fill="#ffffff" stroke="transparent" data-fill-palette-color="tertiary"></path></svg></g><defs></defs></svg><rect width="395.52" height="247.2" fill="none" stroke="none" visibility="hidden"></rect></g></svg></g></svg>